<?xml version="1.0" encoding="UTF-8"?>
<svg id="Capa_1" xmlns="http://www.w3.org/2000/svg" version="1.1" viewBox="0 0 595.28 841.89">
  <!-- Generator: Adobe Illustrator 29.6.0, SVG Export Plug-In . SVG Version: 2.1.1 Build 207)  -->
  <defs>
    <style>
      .st0 {
        fill: #cf960d;
      }

      .st1 {
        fill: #cf950b;
      }

      .st2 {
        isolation: isolate;
      }
    </style>
  </defs>
  <g>
    <g>
      <path class="st1" d="M375.81,583.84c.4.64.81,1.29,1.21,1.94.37.59.73,1.17,1.1,1.76.31.49.62.99.92,1.48.23.37.46.73.68,1.1.13.2.26.41.38.61.02.03.04.06.06.09.11.18.31.29.52.29l9.04-.03c.49,0,.77-.55.5-.95l-12.58-18.49c1.46-.67,2.82-1.54,4.1-2.61,1.27-1.07,2.29-2.37,3.06-3.89.77-1.53,1.15-3.31,1.14-5.36-.01-4.51-1.48-7.87-4.39-10.07s-7.41-3.3-13.51-3.28l-12.15.04c-.49,0-.88.39-.87.88l.14,42.83c0,.56.46,1.02,1.02,1.01l7.43-.02c.56,0,1.01-.46,1.01-1.02l-.12-35.94h3.44c3.09-.02,5.36.42,6.8,1.32,1.44.89,2.17,2.4,2.18,4.53s-.67,3.59-2.02,4.64c-.7.54-1.63.95-2.8,1.21-.44.13-.95.22-1.56.29-.55.06-.96.52-.96,1.07l.02,6.07c0,.22-.03.42.04.63s.2.38.33.56c.14.19.25.4.38.6.26.43.53.85.8,1.28.34.54.67,1.08,1.01,1.62.39.62.77,1.23,1.16,1.85.41.66.83,1.32,1.24,1.98.42.67.84,1.34,1.26,2.01v-.03Z"/>
      <path class="st1" d="M376.92,560.04c0-2.13-.73-3.64-2.18-4.53-1.44-.89-3.71-1.34-6.8-1.33h-.56c3.09,0,5.36.43,6.8,1.33,1.44.89,2.17,2.4,2.17,4.53s-.67,3.59-2.02,4.64c-.7.54-1.32.94-2.24,1.21,1.17-.26,2.11-.67,2.8-1.21,1.35-1.05,2.03-2.6,2.02-4.64h0Z"/>
      <path class="st1" d="M100.54,590.33c1.61.69,3.33,1.23,5.17,1.61,2.15.45,4.38.67,6.67.67,5.26-.02,9.32-1.21,12.17-3.58s4.27-5.54,4.26-9.5c0-2.34-.45-4.3-1.33-5.88-.88-1.58-2.13-2.96-3.74-4.12s-3.57-2.28-5.87-3.36c-1.88-.91-3.45-1.7-4.71-2.36-1.25-.66-2.2-1.36-2.83-2.09-.63-.73-.95-1.61-.95-2.66,0-1.34.47-2.42,1.43-3.26s2.33-1.26,4.13-1.27c1.71,0,3.38.22,5.01.67,1.3.36,2.72.84,4.28,1.44.69.26,1.46-.07,1.74-.75l2.02-4.92c.29-.7-.05-1.49-.75-1.78-1.85-.74-3.63-1.33-5.35-1.77-2.11-.54-4.34-.8-6.67-.79-3.09.01-5.77.52-8.04,1.53-2.27,1.01-4.02,2.47-5.25,4.37s-1.83,4.19-1.83,6.86c0,2.05.37,3.8,1.08,5.26s1.63,2.7,2.74,3.72c1.11,1.02,2.27,1.87,3.48,2.56,1.21.68,2.34,1.28,3.39,1.77,1.67.79,3.16,1.52,4.45,2.21,1.3.68,2.33,1.42,3.11,2.21.77.79,1.16,1.75,1.17,2.88,0,1.38-.48,2.52-1.46,3.42-.98.9-2.64,1.36-4.98,1.36s-4.52-.37-6.8-1.14c-1.62-.54-3.2-1.12-4.75-1.74-.89-.36-1.86.3-1.86,1.26l.02,5.93c0,.54.33,1.03.83,1.24h.02Z"/>
      <path class="st1" d="M175.19,590.67l-15.4-43.21c-.12-.32-.45-.55-.79-.55l-10.42.03c-.35,0-.64.22-.77.57l-15.06,43.3c-.2.52.22,1.09.79,1.09l8.41-.02c.37,0,.69-.25.79-.6l2.88-9.47c.1-.35.42-.6.79-.6l15.06-.05c.35,0,.67.25.79.6l2.93,9.45c.1.35.42.6.79.6l8.41-.02c.6,0,.99-.57.79-1.12h.01ZM158.67,573.24l-9.4.02h-1.12l.32-1.07,2.83-9.35c.17-.45.4-1.24.72-2.33.3-1.12.64-2.28.99-3.52.02-.05.02-.12.05-.17v-.02c.32-1.14.6-2.11.79-2.9.2.82.47,1.79.79,2.88v.02s.02.02.02.05c.32,1.12.67,2.23,1.02,3.3.32,1.09.6,1.98.82,2.7l2.95,9.3.35,1.09h-1.14,0Z"/>
      <path class="st1" d="M149.27,573.26h-1.12l.32-1.07c-.17.52.25,1.07.79,1.07h0Z"/>
      <path class="st1" d="M154.65,556.77c-.25-.77-1.36-.74-1.59.02.32-1.14.6-2.11.79-2.9.2.82.47,1.79.79,2.88h.01Z"/>
      <path class="st1" d="M159.81,573.24h-1.14c.55,0,.94-.55.79-1.09l.35,1.09Z"/>
      <path class="st1" d="M183.76,591.75l5.39-.02c.85,0,1.53-.69,1.53-1.54l-.06-19.51c-.09-2.13-.19-4.26-.3-6.39s-.21-4.26-.3-6.39h.25l19.15,32.99c.28.47.78.77,1.33.76l9.61-.03c.85,0,1.53-.69,1.53-1.54l-.14-41.66c0-.85-.69-1.53-1.54-1.53l-5.45.02c-.85,0-1.53.69-1.53,1.54l.06,19.64c.05,1.38.1,2.75.17,4.1.07,1.36.12,2.72.17,4.1s.09,2.76.14,4.13h-.19l-19.08-32.68c-.28-.47-.78-.76-1.33-.76l-9.55.03c-.85,0-1.53.69-1.53,1.54l.14,41.66c0,.85.69,1.53,1.54,1.53h0Z"/>
      <path class="st1" d="M279.4,590.38l11.07-34h.25c-.04.84-.09,2.08-.14,3.73-.06,1.65-.11,3.39-.17,5.23-.06,1.84-.08,3.47-.08,4.89l.06,19.64c0,.85.69,1.53,1.54,1.53l5.77-.02c.85,0,1.53-.69,1.53-1.54l-.14-41.66c0-.85-.69-1.53-1.54-1.53l-10.26.03c-.66,0-1.25.43-1.45,1.06l-10.76,33.18h-.19l-10.36-33.09c-.2-.64-.8-1.08-1.47-1.07l-10.24.03c-.85,0-1.53.69-1.53,1.54l.14,41.66c0,.85.69,1.53,1.54,1.53l5.39-.02c.85,0,1.53-.69,1.53-1.54l-.06-19.26c0-1.54-.05-3.27-.14-5.17-.09-1.9-.18-3.68-.27-5.35s-.16-2.92-.2-3.76h.25l10.55,33.96c.2.64.8,1.08,1.47,1.08l6.47-.02c.66,0,1.25-.43,1.45-1.06h0Z"/>
      <path class="st1" d="M348.68,590.1l-15.4-43.21c-.1-.32-.42-.55-.77-.55l-10.42.03c-.35,0-.67.22-.79.57l-15.06,43.28c-.17.55.22,1.12.79,1.12l8.43-.02c.35,0,.67-.25.79-.6l2.85-9.47c.1-.35.42-.6.79-.6l15.06-.05c.37,0,.69.22.79.6l2.93,9.45c.12.35.45.6.79.6l8.43-.02c.57-.02.97-.57.77-1.12h.02ZM332.16,572.67l-9.38.02h-1.14l.32-1.07,2.85-9.35c.15-.45.4-1.24.69-2.33.32-1.12.64-2.28.99-3.52.02-.07.05-.12.05-.2h.02c.32-1.14.57-2.11.77-2.9.2.79.47,1.76.79,2.83,0,.02,0,.05.02.07v.03c.35,1.14.67,2.23,1.02,3.32s.62,1.98.82,2.7l2.95,9.3v.02l.35,1.04-1.14.02.02.02Z"/>
      <path class="st1" d="M322.79,572.69h-1.14l.32-1.07c-.15.52.25,1.07.82,1.07Z"/>
      <path class="st1" d="M328.15,556.15c-.3-.72-1.34-.69-1.56.07.32-1.14.57-2.11.77-2.9.2.79.47,1.76.79,2.83Z"/>
      <path class="st1" d="M333.31,572.64l-1.14.02c.57,0,.97-.55.79-1.07l.35,1.04h0Z"/>
      <path class="st1" d="M405.72,555.62l.11,33.96c0,.79.65,1.44,1.44,1.43l6.58-.02c.79,0,1.44-.65,1.43-1.44l-.11-33.96c0-.79.64-1.44,1.43-1.44l9.28-.03c.79,0,1.44-.65,1.43-1.44l-.02-5.02c0-.79-.65-1.44-1.44-1.43l-30.89.1c-.79,0-1.44.65-1.43,1.44l.02,5.02c0,.79.65,1.44,1.44,1.43l9.28-.03c.79,0,1.44.64,1.44,1.43h.01Z"/>
      <path class="st1" d="M450.83,546.14l-18.2.06c-.6,0-1.08.49-1.08,1.08v3.22c.01.6.5,1.08,1.1,1.08l4.36-.05.11,34h-4.37c-.6.01-1.08.5-1.08,1.09v3.23c.01.6.5,1.08,1.09,1.08l18.2-.06c.6,0,1.08-.49,1.08-1.08v-3.23c-.01-.6-.5-1.08-1.09-1.08l-4.37.02-.11-34,4.36.03c.6,0,1.09-.48,1.09-1.08v-3.22c-.01-.6-.5-1.08-1.09-1.08h0Z"/>
      <path class="st1" d="M498.78,545.98l-5.67.02c-.79,0-1.42.64-1.42,1.43l.07,19.75c.05,1.38.1,2.75.17,4.1.07,1.36.12,2.72.17,4.1.05,1.38.09,2.76.14,4.13h-.19l-19.11-32.74c-.26-.44-.73-.71-1.24-.71l-9.71.03c-.79,0-1.42.64-1.42,1.43l.14,41.87c0,.79.64,1.42,1.43,1.42l5.6-.02c.79,0,1.42-.64,1.42-1.43l-.06-19.62c-.09-2.13-.19-4.26-.3-6.39s-.21-4.26-.3-6.39h.25l19.18,33.05c.26.44.73.71,1.24.71l9.78-.03c.79,0,1.42-.64,1.42-1.43l-.14-41.87c0-.79-.64-1.42-1.43-1.42h-.02Z"/>
      <path class="st1" d="M78.71,610.11c-1.69-2.85-4.06-5.03-7.11-6.5-3.05-1.45-6.65-2.19-10.8-2.17l-10.71.04c-.94,0-1.71.77-1.69,1.71l.11,36.14c0,.94.77,1.71,1.71,1.71l9.48-.04c6.85-.02,12.16-1.71,15.93-5.11,3.77-3.4,5.64-8.43,5.62-15.12,0-4.26-.86-7.81-2.55-10.67h0ZM60.47,634.1h-3.6l-.02-1.71-.07-22.36v-1.69h1.69l2.79-.02c3.66,0,6.45,1.01,8.38,3.05s2.9,5.27,2.92,9.66c.02,8.69-4.02,13.03-12.09,13.08h0Z"/>
      <path class="st1" d="M58.56,634.1h-1.69l-.02-1.71c0,.94.77,1.71,1.71,1.71Z"/>
      <path class="st1" d="M58.48,608.33c-.94,0-1.69.77-1.69,1.69v-1.69h1.69Z"/>
      <path class="st1" d="M111.97,601.27l-20.59.07c-.61,0-1.09.49-1.09,1.1l.12,37.38c0,.61.49,1.09,1.1,1.09l20.59-.07c.61,0,1.09-.49,1.09-1.1l-.02-4.74c0-.61-.49-1.09-1.1-1.09l-12.22.04c-.61,0-1.1-.49-1.1-1.09l-.03-8.01c0-.61.49-1.1,1.09-1.1l11.22-.04c.61,0,1.09-.49,1.09-1.1l-.02-4.68c0-.61-.49-1.09-1.1-1.09l-11.22.04c-.61,0-1.1-.49-1.1-1.09l-.02-6.51c0-.61.49-1.1,1.09-1.1l12.22-.04c.61,0,1.09-.49,1.09-1.1l-.02-4.68c0-.61-.49-1.09-1.1-1.09h.03Z"/>
      <path class="st1" d="M160.65,633.76l-14.67.05-.1-31.25c0-.77-.63-1.39-1.4-1.39l-5.58.02c-.77,0-1.39.63-1.39,1.4l.12,36.78c0,.77.63,1.39,1.4,1.39l21.65-.07c.77,0,1.39-.63,1.39-1.4v-4.13c-.02-.77-.64-1.39-1.41-1.39h0Z"/>
      <path class="st1" d="M202.74,639.56l-13.63-38.2c-.11-.31-.39-.5-.7-.5l-9.22.04c-.31,0-.59.2-.68.48l-13.32,38.31c-.18.48.18.97.7.97l7.44-.02c.33,0,.61-.2.7-.53l2.55-8.38c.09-.31.37-.53.7-.53l13.32-.04c.31,0,.59.22.7.53l2.59,8.36c.09.33.37.53.7.53l7.44-.02c.53,0,.88-.5.7-.99h.01ZM178.82,624.16l2.79-9.19c.15-.42.35-1.1.64-2.08.26-.99.57-2.02.88-3.12.02-.09.04-.2.09-.31.02-.11.04-.2.09-.31.04-.2.09-.37.15-.57.15-.57.29-1.1.39-1.56.13.46.26.99.42,1.56.11.33.22.68.33,1.05.29.99.59,1.97.88,2.94.31.94.55,1.73.75,2.37l2.9,9.19-10.29.02h-.02Z"/>
      <path class="st1" d="M184.26,608.58h-.81c.15-.57.29-1.1.39-1.56.13.46.26.99.42,1.56Z"/>
      <path class="st1" d="M247.94,604.12c-2.37-2.19-6.08-3.27-11.19-3.27l-10.01.04c-1.45,0-2.61,1.19-2.61,2.63l.11,35c0,1.08.88,1.93,1.95,1.93h4.48c1.08-.02,1.95-.88,1.93-1.95l-.02-12.14,3.6-.02c3.84,0,6.87-.64,9.11-1.84,2.24-1.23,3.82-2.85,4.78-4.87.94-2.02,1.43-4.17,1.4-6.47,0-3.84-1.18-6.85-3.53-9.04h0ZM240.94,618.06c-1.38.94-3.25,1.43-5.62,1.43l-2.77.02-.04-11.76h3.82c2.28-.02,3.97.46,5.05,1.38,1.08.94,1.62,2.39,1.62,4.34,0,2.11-.68,3.64-2.06,4.59h0Z"/>
      <path class="st1" d="M290.08,639.28l-13.63-38.23c-.11-.29-.39-.48-.7-.48l-9.22.02c-.31.02-.57.2-.68.5l-13.32,38.31c-.18.46.18.97.7.97l7.44-.02c.33,0,.61-.22.7-.53l2.55-8.38c.09-.31.37-.53.7-.53l13.32-.04c.31,0,.59.22.7.53l2.59,8.36c.09.31.37.53.7.53l7.44-.02c.53,0,.88-.5.7-.99h0ZM266.16,623.87l2.79-9.22c.15-.4.35-1.1.64-2.06.26-.99.57-2.02.88-3.12.04-.2.11-.39.15-.57.07-.24.13-.48.2-.7.15-.55.29-1.03.39-1.47.11.44.24.94.39,1.47.04.18.09.37.15.55.02.09.04.2.09.29.02.11.04.2.09.31.29.99.59,1.98.9,2.92.29.97.53,1.76.72,2.39l2.9,9.19-10.29.02h0Z"/>
      <path class="st1" d="M271.6,608.2c-.13-.4-.68-.4-.79,0,.15-.55.29-1.03.39-1.47.11.44.24.94.39,1.47h0Z"/>
      <path class="st1" d="M318.3,606.49l-.02-4.81c0-.6-.49-1.08-1.09-1.08l-27.7.09c-.6,0-1.08.49-1.08,1.09l.02,4.81c0,.6.49,1.08,1.09,1.08l9.67-.03.1,31.5c0,.6.49,1.08,1.09,1.08l6.2-.02c.6,0,1.08-.49,1.08-1.09l-.1-31.5,9.67-.03c.6,0,1.08-.49,1.08-1.09h-.01Z"/>
      <path class="st1" d="M354.53,639.34l-13.78-38.64c-.09-.2-.29-.35-.5-.35l-9.5.04c-.22,0-.42.13-.5.35l-13.47,38.73c-.11.33.13.7.5.7l7.9-.04c.24,0,.44-.15.5-.35l2.63-8.71c.07-.22.26-.35.48-.35l13.65-.07c.22,0,.44.15.5.37l2.68,8.69c.07.2.26.35.5.35l7.9-.02c.37,0,.61-.35.5-.7h.01ZM340.09,623.63l-8.89.02-.7.02.2-.68,2.59-8.54c.15-.42.35-1.1.64-2.08.26-.99.57-2.02.88-3.12l.07-.26c.04-.13.09-.26.11-.39.02-.07.04-.13.07-.22.2-.7.37-1.32.5-1.86.13.55.31,1.18.5,1.86.07.24.13.48.22.75.29.99.59,1.97.9,2.94.29.94.53,1.76.72,2.37l2.7,8.51v.02l.2.66h-.71Z"/>
      <path class="st1" d="M331.2,623.65l-.7.02.2-.68c-.09.33.15.66.5.66Z"/>
      <path class="st1" d="M336.05,608.38c-.15-.5-.86-.5-1.01,0,.2-.7.37-1.32.5-1.86.13.55.31,1.18.5,1.86h.01Z"/>
      <path class="st1" d="M340.79,623.63h-.7c.35,0,.59-.33.5-.66l.2.66Z"/>
      <path class="st1" d="M388.82,617.71l-13.01.04c-.74,0-1.34.6-1.33,1.34v4.31c.02.74.62,1.34,1.36,1.33l6.14-.02.02,7.15c0,.65-.47,1.21-1.11,1.32-.38.07-.78.13-1.19.18-.83.11-1.84.17-3.02.18-2.44,0-4.42-.55-5.94-1.67s-2.63-2.68-3.34-4.67-1.07-4.28-1.08-6.87c0-2.73.47-5.11,1.44-7.13s2.35-3.58,4.14-4.7c1.79-1.11,3.9-1.68,6.34-1.68,1.7,0,3.33.19,4.88.59,1.05.27,2.03.6,2.93.97.69.29,1.48-.03,1.76-.72l1.71-4.18c.29-.7-.06-1.49-.77-1.76-1.32-.5-2.75-.91-4.27-1.24-2.03-.44-4.1-.65-6.21-.64-4.43.01-8.18.86-11.24,2.53-3.06,1.67-5.39,4.03-6.99,7.06-1.6,3.04-2.39,6.62-2.38,10.76.01,4.43.74,8.16,2.17,11.19,1.43,3.03,3.53,5.31,6.29,6.85s6.09,2.31,10.01,2.29c2.84,0,5.38-.22,7.62-.63.17-.03.34-.06.51-.1,3.45-.68,5.94-3.7,5.92-7.21l-.04-13.54c0-.74-.6-1.34-1.34-1.33h.02Z"/>
      <path class="st1" d="M434.34,609.21c-1.36-3.05-3.45-5.4-6.21-7.07-2.79-1.67-6.32-2.5-10.6-2.5-4.32.02-7.88.88-10.66,2.57-2.77,1.69-4.83,4.06-6.17,7.09-1.34,3.03-2.02,6.6-2,10.71.02,4.1.7,7.68,2.06,10.73,1.36,3.07,3.42,5.44,6.23,7.13,2.79,1.69,6.32,2.52,10.62,2.52,4.32-.02,7.86-.88,10.62-2.59,2.77-1.71,4.83-4.08,6.17-7.15,1.34-3.05,2-6.63,1.98-10.73,0-4.08-.68-7.66-2.04-10.71ZM425.28,629.75c-1.54,2.39-4.1,3.58-7.68,3.6-3.51,0-6.08-1.16-7.66-3.56-1.6-2.37-2.41-5.64-2.41-9.77-.02-4.17.77-7.46,2.35-9.83,1.58-2.37,4.15-3.56,7.68-3.56,3.55-.02,6.1,1.16,7.66,3.51,1.56,2.37,2.35,5.64,2.37,9.81.02,4.13-.75,7.4-2.3,9.79h-.01Z"/>
      <path class="st1" d="M478.41,600.06h-3.38c-1.15.01-2.08.95-2.07,2.1l.06,16.65c.04,1.22.09,2.43.15,3.63s.11,2.41.15,3.63c.04,1.22.08,2.44.12,3.66h-.17l-16.67-28.56c-.37-.64-1.06-1.03-1.8-1.03l-7.31.02c-1.15,0-2.08.94-2.07,2.09l.12,35.41c0,1.15.94,2.08,2.09,2.07h3.32c1.15-.01,2.08-.95,2.07-2.1l-.05-16.54c-.08-1.88-.17-3.77-.27-5.65-.1-1.88-.19-3.77-.27-5.65h.22l16.73,28.83c.37.64,1.06,1.04,1.81,1.04l7.36-.02c1.15,0,2.08-.94,2.07-2.09l-.12-35.41c0-1.15-.94-2.08-2.09-2.07h0Z"/>
      <path class="st1" d="M505.14,599.97l-15.98.05c-.56,0-1.01.46-1.01,1.02v2.73c.01.56.47,1.02,1.03,1.01l3.8-.03.1,30.01-3.82.06c-.56,0-1,.46-1,1.02v2.75c.01.56.47,1.01,1.03,1.01l15.98-.05c.56,0,1.01-.46,1.01-1.02v-2.75c-.01-.56-.46-1.01-1.01-1.01l-3.82-.03-.1-30.01h3.8c.56,0,1.02-.45,1.02-1.01v-2.73c-.01-.56-.47-1.01-1.03-1.01h0Z"/>
      <path class="st1" d="M546.83,638.42l-13.63-38.2c-.09-.31-.37-.5-.68-.5l-9.22.04c-.31,0-.59.2-.7.48l-13.32,38.31c-.15.48.2.99.7.97l7.44-.02c.33,0,.61-.2.7-.5l2.55-8.4c.09-.31.37-.5.7-.53l13.32-.04c.33,0,.61.22.7.53l2.59,8.38c.11.31.39.5.7.5l7.46-.02c.5,0,.86-.5.68-.99h0ZM532.21,622.99l-8.32.02-.99.02.29-.97,2.52-8.25c.13-.42.35-1.1.61-2.08.29-.99.57-2.02.88-3.12.02-.04.04-.11.04-.15,0,0,0-.02.02-.02v-.02c.29-.99.5-1.84.68-2.55.18.75.42,1.6.72,2.59v.02c.31.99.59,1.97.9,2.94.31.94.55,1.76.72,2.37l2.61,8.23v.02l.31.94h-1.01.02Z"/>
      <path class="st1" d="M523.89,623.02l-.99.02.29-.97c-.13.48.22.94.7.94h0Z"/>
      <path class="st1" d="M528.68,608.47c-.22-.7-1.19-.7-1.4-.04.29-.99.5-1.84.68-2.55.18.75.42,1.6.72,2.59h0Z"/>
      <path class="st1" d="M533.22,622.99h-1.01c.5,0,.86-.48.7-.94l.31.94Z"/>
      <path class="st1" d="M452.4,552.89l-.02-5.56c0-.66-.54-1.2-1.2-1.19l-18.89.06c-.66,0-1.2.54-1.19,1.2l.02,5.56c0,.66.54,1.2,1.2,1.19l4.83-.02v28.81l-4.74.02c-.66,0-1.2.54-1.19,1.2l.02,5.56c0,.66.54,1.2,1.2,1.19h0s.07.01.11.01l18.67-.06s.07,0,.11-.01h0c.66,0,1.2-.54,1.19-1.2l-.02-5.56c0-.66-.54-1.2-1.2-1.19l-4.72.02-.17-28.81,4.8-.02c.66,0,1.2-.54,1.19-1.2h0Z"/>
      <path class="st1" d="M506.58,605.94l-.02-4.92c0-.58-.48-1.06-1.06-1.06l-16.72.06c-.58,0-1.06.48-1.06,1.06l.02,4.92c0,.58.48,1.06,1.06,1.06h4.27v25.48h-4.18c-.58.02-1.06.49-1.06,1.08l.02,4.92c0,.58.48,1.06,1.06,1.06h.1l16.52-.05s.07,0,.1-.01h0c.58,0,1.06-.48,1.06-1.06l-.02-4.92c0-.58-.48-1.06-1.06-1.06h-4.18l-.15-25.48h4.25c.58-.02,1.06-.49,1.06-1.08h-.01Z"/>
    </g>
    <g class="st2">
      <g class="st2">
        <path class="st1" d="M50.09,671.67c-.79,0-1.58-.06-2.38-.19s-1.56-.31-2.29-.54v-1.6c.53.18,1.07.32,1.62.43.55.11,1.08.19,1.61.24.52.05,1.01.08,1.47.08,1.54,0,2.68-.26,3.39-.78s1.08-1.26,1.08-2.23c0-.83-.28-1.46-.83-1.88-.56-.42-1.5-.76-2.82-1.02l-.99-.19c-1.67-.32-2.88-.85-3.64-1.58-.76-.73-1.14-1.69-1.14-2.88,0-1.43.53-2.55,1.6-3.37,1.07-.82,2.67-1.23,4.8-1.23.76,0,1.49.05,2.2.15.71.1,1.37.24,1.98.42v1.61c-.65-.21-1.33-.36-2.04-.46-.71-.1-1.42-.15-2.14-.15-1.04,0-1.89.11-2.54.34-.66.23-1.15.56-1.47,1-.32.44-.48.97-.48,1.6,0,.8.24,1.42.73,1.86.49.44,1.35.78,2.59,1.03l1,.19c1.22.24,2.21.56,2.95.96s1.29.88,1.63,1.46.51,1.27.51,2.05c0,.99-.25,1.84-.76,2.53s-1.23,1.23-2.19,1.59c-.95.37-2.11.55-3.46.55Z"/>
        <path class="st1" d="M59.65,671.46v-16.33h11.4v1.53h-9.51v13.26h9.62v1.53h-11.51ZM60.63,663.85v-1.53h9.3v1.53h-9.3Z"/>
        <path class="st1" d="M74.43,671.46v-15.98c.46-.1.94-.18,1.46-.26.52-.08,1.06-.15,1.64-.19.58-.05,1.2-.07,1.84-.07,2.34,0,4.08.38,5.22,1.14,1.14.76,1.71,2,1.71,3.71,0,1.1-.27,2.01-.81,2.74-.54.73-1.35,1.28-2.42,1.64-1.07.37-2.4.55-3.98.55-.52,0-1-.01-1.43-.04-.43-.03-.88-.06-1.36-.09v6.85h-1.88ZM79.17,663.26c1.89,0,3.25-.28,4.08-.85.83-.57,1.25-1.42,1.25-2.57,0-.85-.17-1.52-.52-2.02-.35-.5-.89-.86-1.63-1.08s-1.69-.33-2.86-.33c-.67,0-1.25.03-1.73.08-.48.05-.96.12-1.44.21v6.41c.35.04.66.06.94.08s.57.03.87.04c.3.01.65.02,1.05.02ZM85.34,671.46l-6.3-7.74h2.17l6.33,7.74h-2.21Z"/>
        <path class="st1" d="M94.38,671.46l-6.61-16.33h2.05l6.2,15.45h-.44l6.21-15.45h1.92l-6.61,16.33h-2.73Z"/>
        <path class="st1" d="M106.07,671.46v-16.33h1.91v16.33h-1.91Z"/>
        <path class="st1" d="M119.85,671.67c-1.27,0-2.41-.16-3.44-.46s-1.91-.79-2.64-1.46c-.73-.66-1.3-1.52-1.69-2.58-.4-1.06-.6-2.34-.6-3.84,0-1.91.34-3.48,1.03-4.72.68-1.24,1.66-2.16,2.94-2.78,1.28-.61,2.8-.92,4.57-.92.76,0,1.47.04,2.13.13.65.09,1.31.22,1.96.41v1.62c-.63-.18-1.28-.31-1.95-.4s-1.35-.14-2.06-.14c-1.42,0-2.62.23-3.61.69s-1.73,1.19-2.25,2.18-.77,2.28-.77,3.87.26,2.98.78,3.97,1.27,1.7,2.23,2.14c.96.44,2.11.66,3.44.66.71,0,1.4-.05,2.06-.15s1.36-.27,2.11-.51v1.62c-.66.22-1.34.39-2.05.5-.7.11-1.44.17-2.22.17Z"/>
        <path class="st1" d="M126.91,671.46v-16.33h1.91v16.33h-1.91Z"/>
        <path class="st1" d="M140.09,671.67c-1.54,0-2.9-.3-4.07-.91-1.17-.6-2.07-1.52-2.72-2.76-.65-1.24-.97-2.81-.97-4.71s.33-3.47.98-4.71c.65-1.24,1.56-2.16,2.73-2.76,1.17-.6,2.51-.9,4.04-.9s2.91.3,4.07.91c1.16.61,2.07,1.53,2.71,2.76.65,1.24.97,2.8.97,4.7s-.33,3.46-.98,4.7c-.65,1.24-1.56,2.16-2.73,2.76-1.17.61-2.52.91-4.06.91ZM140.09,670.06c1.16,0,2.18-.23,3.05-.68.87-.46,1.55-1.18,2.02-2.17.48-.99.72-2.28.72-3.86s-.24-2.93-.72-3.93c-.48-1-1.16-1.73-2.03-2.2-.87-.46-1.89-.7-3.04-.7s-2.17.23-3.03.68-1.54,1.18-2.03,2.16c-.49.99-.73,2.27-.73,3.86s.24,2.94.72,3.94c.48,1,1.16,1.73,2.02,2.19s1.88.69,3.05.69Z"/>
        <path class="st1" d="M162.09,671.58c-.5,0-.99,0-1.48-.03-.49-.02-.98-.05-1.49-.09-.51-.04-1.05-.1-1.62-.17v-15.81c.52-.12,1.06-.21,1.63-.29s1.15-.13,1.73-.17c.58-.04,1.13-.06,1.65-.06,2.99,0,5.25.69,6.8,2.06,1.55,1.38,2.32,3.46,2.32,6.26,0,1.88-.35,3.44-1.06,4.66-.71,1.23-1.77,2.14-3.18,2.73-1.42.6-3.18.89-5.3.89ZM162.48,669.99c1.61,0,2.95-.24,4.02-.72,1.07-.48,1.86-1.21,2.39-2.2.53-.99.79-2.25.79-3.79s-.27-2.79-.79-3.79c-.53-.99-1.32-1.73-2.38-2.21-1.06-.48-2.38-.72-3.97-.72-.49,0-1,.02-1.51.07-.52.04-1.05.11-1.6.2v12.97c.42.07.87.12,1.36.15.49.03,1.06.05,1.71.05Z"/>
        <path class="st1" d="M175.16,671.46v-16.33h11.4v1.53h-9.51v13.26h9.62v1.53h-11.51ZM176.13,663.85v-1.53h9.3v1.53h-9.3Z"/>
        <path class="st1" d="M200.26,671.46v-14.74h-6.09v-1.59h14.09v1.59h-6.09v14.74h-1.91Z"/>
        <path class="st1" d="M210.62,671.46v-15.98c.46-.1.94-.18,1.46-.26.52-.08,1.06-.15,1.64-.19.58-.05,1.2-.07,1.84-.07,2.34,0,4.08.38,5.22,1.14,1.14.76,1.71,2,1.71,3.71,0,1.1-.27,2.01-.81,2.74-.54.73-1.35,1.28-2.42,1.64-1.07.37-2.4.55-3.98.55-.52,0-1-.01-1.43-.04-.43-.03-.88-.06-1.36-.09v6.85h-1.88ZM215.36,663.26c1.89,0,3.25-.28,4.08-.85.83-.57,1.25-1.42,1.25-2.57,0-.85-.17-1.52-.52-2.02-.35-.5-.89-.86-1.63-1.08s-1.69-.33-2.86-.33c-.67,0-1.25.03-1.73.08-.48.05-.96.12-1.44.21v6.41c.35.04.66.06.94.08s.57.03.87.04c.3.01.65.02,1.05.02ZM221.54,671.46l-6.3-7.74h2.17l6.33,7.74h-2.21Z"/>
        <path class="st1" d="M224,671.46l6.63-16.33h2.66l6.64,16.33h-1.94l-6.19-15.45h.31l-6.2,15.45h-1.91ZM227.62,666.19l.47-1.53h7.74l.47,1.53h-8.68Z"/>
        <path class="st1" d="M242.51,671.46v-16.33h1.95l10.69,14.29h-.45v-14.29h1.81v16.33h-1.95l-10.69-14.29h.45v14.29h-1.81Z"/>
        <path class="st1" d="M264.61,671.67c-.79,0-1.58-.06-2.38-.19s-1.56-.31-2.29-.54v-1.6c.53.18,1.07.32,1.62.43.55.11,1.08.19,1.61.24.52.05,1.01.08,1.47.08,1.54,0,2.68-.26,3.39-.78s1.08-1.26,1.08-2.23c0-.83-.28-1.46-.83-1.88-.56-.42-1.5-.76-2.82-1.02l-.99-.19c-1.67-.32-2.88-.85-3.64-1.58-.76-.73-1.14-1.69-1.14-2.88,0-1.43.53-2.55,1.6-3.37,1.07-.82,2.67-1.23,4.8-1.23.76,0,1.49.05,2.2.15.71.1,1.37.24,1.98.42v1.61c-.65-.21-1.33-.36-2.04-.46-.71-.1-1.42-.15-2.14-.15-1.04,0-1.89.11-2.54.34-.66.23-1.15.56-1.47,1-.32.44-.48.97-.48,1.6,0,.8.24,1.42.73,1.86.49.44,1.35.78,2.59,1.03l1,.19c1.22.24,2.21.56,2.95.96s1.29.88,1.63,1.46.51,1.27.51,2.05c0,.99-.25,1.84-.76,2.53s-1.23,1.23-2.19,1.59c-.95.37-2.11.55-3.46.55Z"/>
        <path class="st1" d="M274.17,671.46v-16.03c.8-.15,1.58-.27,2.34-.35.76-.08,1.57-.12,2.44-.12,2.31,0,4.07.44,5.28,1.33,1.21.89,1.82,2.29,1.82,4.22,0,1.81-.59,3.2-1.77,4.16-1.18.96-3.05,1.45-5.62,1.45-.46,0-.88,0-1.29-.03-.4-.02-.83-.05-1.3-.09v5.47h-1.91ZM278.67,664.65c1.97,0,3.38-.34,4.22-1.03.84-.69,1.26-1.72,1.26-3.11s-.42-2.47-1.27-3.12c-.85-.65-2.12-.98-3.81-.98-.59,0-1.12.02-1.61.07s-.95.11-1.4.19v7.8c.42.06.83.1,1.24.13.41.03.86.04,1.35.04Z"/>
        <path class="st1" d="M296.26,671.67c-1.54,0-2.9-.3-4.07-.91-1.17-.6-2.07-1.52-2.72-2.76-.65-1.24-.97-2.81-.97-4.71s.33-3.47.98-4.71c.65-1.24,1.56-2.16,2.73-2.76,1.17-.6,2.51-.9,4.04-.9s2.91.3,4.07.91c1.16.61,2.07,1.53,2.71,2.76.65,1.24.97,2.8.97,4.7s-.33,3.46-.98,4.7c-.65,1.24-1.56,2.16-2.73,2.76-1.17.61-2.52.91-4.06.91ZM296.26,670.06c1.16,0,2.18-.23,3.05-.68.87-.46,1.55-1.18,2.02-2.17s.72-2.28.72-3.86-.24-2.93-.72-3.93c-.48-1-1.16-1.73-2.03-2.2-.87-.46-1.88-.7-3.04-.7s-2.17.23-3.03.68-1.54,1.18-2.03,2.16c-.49.99-.73,2.27-.73,3.86s.24,2.94.72,3.94c.48,1,1.16,1.73,2.02,2.19s1.88.69,3.05.69Z"/>
        <path class="st1" d="M307.53,671.46v-15.98c.46-.1.94-.18,1.46-.26s1.06-.15,1.64-.19c.58-.05,1.2-.07,1.84-.07,2.34,0,4.08.38,5.22,1.14,1.14.76,1.71,2,1.71,3.71,0,1.1-.27,2.01-.81,2.74-.54.73-1.35,1.28-2.42,1.64-1.07.37-2.4.55-3.98.55-.52,0-1-.01-1.43-.04s-.88-.06-1.36-.09v6.85h-1.88ZM312.26,663.26c1.89,0,3.25-.28,4.08-.85s1.25-1.42,1.25-2.57c0-.85-.17-1.52-.52-2.02-.35-.5-.89-.86-1.63-1.08s-1.69-.33-2.86-.33c-.67,0-1.25.03-1.73.08-.48.05-.96.12-1.44.21v6.41c.35.04.66.06.94.08.28.02.57.03.87.04.3.01.65.02,1.05.02ZM318.44,671.46l-6.3-7.74h2.17l6.33,7.74h-2.21Z"/>
        <path class="st1" d="M326.11,671.46v-14.74h-6.09v-1.59h14.09v1.59h-6.09v14.74h-1.91Z"/>
        <path class="st1" d="M336.48,671.46v-16.33h11.4v1.53h-9.51v13.26h9.62v1.53h-11.51ZM337.45,663.85v-1.53h9.3v1.53h-9.3Z"/>
        <path class="st1" d="M357.4,671.46v-16.33h1.91v16.33h-1.91Z"/>
        <path class="st1" d="M363.59,671.46v-16.33h1.95l10.69,14.29h-.45v-14.29h1.81v16.33h-1.95l-10.69-14.29h.45v14.29h-1.81Z"/>
        <path class="st1" d="M386.05,671.46v-14.74h-6.09v-1.59h14.09v1.59h-6.09v14.74h-1.91Z"/>
        <path class="st1" d="M396.42,671.46v-16.33h11.4v1.53h-9.51v13.26h9.62v1.53h-11.51ZM397.39,663.85v-1.53h9.3v1.53h-9.3Z"/>
        <path class="st1" d="M411.19,671.46v-15.98c.46-.1.94-.18,1.46-.26.52-.08,1.06-.15,1.64-.19s1.2-.07,1.84-.07c2.34,0,4.08.38,5.22,1.14s1.71,2,1.71,3.71c0,1.1-.27,2.01-.81,2.74s-1.35,1.28-2.42,1.64c-1.07.37-2.4.55-3.98.55-.52,0-1-.01-1.43-.04-.43-.03-.88-.06-1.36-.09v6.85h-1.88ZM415.93,663.26c1.89,0,3.25-.28,4.08-.85.83-.57,1.25-1.42,1.25-2.57,0-.85-.17-1.52-.52-2.02-.35-.5-.89-.86-1.63-1.08s-1.69-.33-2.86-.33c-.67,0-1.25.03-1.73.08-.48.05-.96.12-1.44.21v6.41c.35.04.66.06.94.08.28.02.57.03.87.04.3.01.65.02,1.05.02ZM422.11,671.46l-6.3-7.74h2.17l6.33,7.74h-2.21Z"/>
        <path class="st1" d="M427.23,671.46v-16.33h1.95l10.69,14.29h-.45v-14.29h1.81v16.33h-1.95l-10.69-14.29h.45v14.29h-1.81Z"/>
        <path class="st1" d="M443.81,671.46l6.63-16.33h2.66l6.64,16.33h-1.94l-6.19-15.45h.31l-6.2,15.45h-1.91ZM447.43,666.19l.47-1.53h7.74l.47,1.53h-8.68Z"/>
        <path class="st1" d="M469.56,671.67c-1.27,0-2.41-.16-3.44-.46s-1.91-.79-2.64-1.46c-.73-.66-1.3-1.52-1.69-2.58-.4-1.06-.6-2.34-.6-3.84,0-1.91.34-3.48,1.03-4.72.68-1.24,1.66-2.16,2.94-2.78,1.28-.61,2.8-.92,4.57-.92.76,0,1.47.04,2.13.13.65.09,1.31.22,1.96.41v1.62c-.63-.18-1.28-.31-1.95-.4s-1.35-.14-2.06-.14c-1.42,0-2.62.23-3.61.69-.99.46-1.73,1.19-2.25,2.18-.51.99-.77,2.28-.77,3.87s.26,2.98.78,3.97,1.26,1.7,2.23,2.14c.96.44,2.11.66,3.44.66.71,0,1.4-.05,2.06-.15s1.36-.27,2.11-.51v1.62c-.66.22-1.34.39-2.05.5s-1.44.17-2.22.17Z"/>
        <path class="st1" d="M476.62,671.46v-16.33h1.91v16.33h-1.91Z"/>
        <path class="st1" d="M489.79,671.67c-1.54,0-2.9-.3-4.07-.91-1.17-.6-2.07-1.52-2.72-2.76-.65-1.24-.97-2.81-.97-4.71s.33-3.47.98-4.71c.65-1.24,1.56-2.16,2.73-2.76,1.17-.6,2.51-.9,4.04-.9s2.91.3,4.07.91c1.16.61,2.07,1.53,2.71,2.76.65,1.24.97,2.8.97,4.7s-.33,3.46-.98,4.7c-.65,1.24-1.56,2.16-2.73,2.76-1.17.61-2.52.91-4.05.91ZM489.79,670.06c1.16,0,2.18-.23,3.05-.68.87-.46,1.55-1.18,2.03-2.17.48-.99.72-2.28.72-3.86s-.24-2.93-.72-3.93c-.48-1-1.16-1.73-2.03-2.2-.87-.46-1.89-.7-3.04-.7s-2.17.23-3.04.68-1.54,1.18-2.03,2.16c-.49.99-.73,2.27-.73,3.86s.24,2.94.72,3.94c.48,1,1.16,1.73,2.03,2.19s1.88.69,3.05.69Z"/>
        <path class="st1" d="M501.06,671.46v-16.33h1.95l10.69,14.29h-.45v-14.29h1.81v16.33h-1.95l-10.69-14.29h.45v14.29h-1.81Z"/>
        <path class="st1" d="M517.65,671.46l6.63-16.33h2.66l6.64,16.33h-1.94l-6.19-15.45h.31l-6.2,15.45h-1.91ZM521.27,666.19l.47-1.53h7.74l.47,1.53h-8.68Z"/>
        <path class="st1" d="M536.16,671.46v-16.33h1.91v14.74h9.15v1.59h-11.06Z"/>
      </g>
    </g>
  </g>
  <g class="st2">
    <g class="st2">
      <path class="st0" d="M104.96,707.31l-3.64-13.11h3.02l2.67,10.11h-.19l2.85-10.11h3.55l2.81,10.11h-.24l2.73-10.11h2.9l-3.62,13.11h-3.55l-2.96-10.47h.22l-2.99,10.47h-3.55Z"/>
      <path class="st0" d="M126.22,707.31l-3.64-13.11h3.02l2.67,10.11h-.19l2.85-10.11h3.55l2.81,10.11h-.24l2.73-10.11h2.9l-3.62,13.11h-3.55l-2.96-10.47h.22l-2.99,10.47h-3.55Z"/>
    </g>
    <g class="st2">
      <path class="st0" d="M147.49,707.31l-3.64-13.11h3.02l2.67,10.11h-.19l2.85-10.11h3.55l2.81,10.11h-.24l2.73-10.11h2.9l-3.62,13.11h-3.55l-2.96-10.47h.22l-2.99,10.47h-3.55Z"/>
    </g>
    <g class="st2">
      <path class="st0" d="M166.88,707.49c-.63,0-1.14-.18-1.53-.53-.38-.35-.58-.83-.58-1.44s.19-1.09.56-1.44c.38-.35.89-.53,1.54-.53s1.15.18,1.53.54c.38.36.56.84.56,1.43s-.19,1.07-.58,1.43c-.38.36-.89.54-1.51.54Z"/>
      <path class="st0" d="M175.18,707.55c-.72,0-1.42-.05-2.09-.14-.67-.09-1.31-.23-1.91-.42v-2.37c.64.19,1.29.34,1.95.43.66.1,1.33.14,2.01.14.96,0,1.65-.14,2.06-.43s.61-.68.61-1.18c0-.42-.11-.75-.34-.97-.22-.22-.6-.39-1.14-.49l-2.01-.38c-1.22-.24-2.1-.67-2.64-1.28-.54-.61-.82-1.42-.82-2.42,0-1.2.48-2.18,1.44-2.93.96-.75,2.42-1.12,4.39-1.12.62,0,1.21.03,1.79.1.57.07,1.1.17,1.58.31v2.37c-.51-.14-1.04-.25-1.59-.32s-1.11-.11-1.68-.11c-.77,0-1.37.07-1.8.22-.43.15-.73.35-.91.59-.18.25-.26.52-.26.82,0,.36.11.66.32.9s.59.41,1.13.52l2,.37c1.19.23,2.07.64,2.64,1.21.57.57.86,1.4.86,2.49,0,1.27-.48,2.26-1.45,2.99-.97.73-2.35,1.09-4.14,1.09Z"/>
      <path class="st0" d="M186.48,707.54c-1.31,0-2.33-.34-3.06-1.02-.73-.68-1.1-1.58-1.1-2.7,0-1.2.41-2.14,1.23-2.82.82-.68,2.15-1.08,3.97-1.22l3.03-.29.34,1.83-3.06.28c-.84.08-1.45.28-1.82.6s-.55.76-.55,1.32.17,1.01.5,1.31c.34.3.83.46,1.49.46.43,0,.87-.08,1.31-.25.44-.17.84-.45,1.2-.84v-5.16c0-.67-.11-1.19-.32-1.57-.21-.38-.55-.65-1.01-.81s-1.06-.23-1.8-.23c-.5,0-1.06.04-1.69.13-.63.09-1.25.22-1.85.41v-2.42c.62-.18,1.29-.33,2.03-.42.73-.1,1.42-.14,2.06-.14,1.29,0,2.35.16,3.19.49.84.32,1.46.87,1.87,1.63.41.76.61,1.8.61,3.12v8.08h-2.61l-.23-1.36h-.16c-.4.54-.92.94-1.54,1.2-.63.26-1.31.39-2.04.39Z"/>
      <path class="st0" d="M196.06,707.31v-13.11h2.62l.22,1.38h.16c.5-.51,1.09-.91,1.77-1.18.67-.27,1.4-.41,2.18-.41.85,0,1.6.16,2.27.49.66.33,1.18.86,1.56,1.58.38.73.56,1.69.56,2.9v8.34h-3.16v-8.16c0-.91-.19-1.54-.58-1.89-.38-.35-.91-.53-1.59-.53-.32,0-.65.04-1,.13-.34.09-.68.23-1,.42-.32.19-.6.44-.84.76v9.27h-3.16Z"/>
      <path class="st0" d="M210.39,707.31v-13.11h2.62l.22,1.39h.16c.48-.53,1.04-.93,1.66-1.2s1.32-.4,2.06-.4,1.44.16,2.04.48c.6.32,1.07.84,1.42,1.56.34.72.52,1.67.52,2.84v8.44h-3.09v-8.17c0-.91-.17-1.53-.52-1.88s-.81-.52-1.39-.52c-.3,0-.6.05-.91.14-.31.09-.61.24-.89.44-.28.2-.52.46-.73.77v9.23h-3.16ZM225.45,707.31v-8.17c0-.91-.18-1.53-.55-1.88s-.85-.52-1.43-.52c-.3,0-.62.05-.95.14-.33.1-.64.25-.94.47-.3.22-.55.52-.77.88l-.67-2.15c.61-.76,1.29-1.3,2.04-1.62.75-.32,1.49-.47,2.22-.47.81,0,1.53.16,2.16.49.63.32,1.13.85,1.5,1.58.36.73.55,1.7.55,2.91v8.34h-3.15Z"/>
      <path class="st0" d="M235.09,707.54c-1.31,0-2.33-.34-3.06-1.02-.73-.68-1.1-1.58-1.1-2.7,0-1.2.41-2.14,1.23-2.82.82-.68,2.15-1.08,3.97-1.22l3.03-.29.34,1.83-3.06.28c-.84.08-1.45.28-1.82.6s-.55.76-.55,1.32.17,1.01.5,1.31c.34.3.83.46,1.49.46.43,0,.87-.08,1.31-.25.44-.17.84-.45,1.2-.84v-5.16c0-.67-.11-1.19-.32-1.57-.21-.38-.55-.65-1.01-.81s-1.06-.23-1.8-.23c-.5,0-1.06.04-1.69.13-.63.09-1.25.22-1.85.41v-2.42c.62-.18,1.29-.33,2.03-.42.73-.1,1.42-.14,2.06-.14,1.29,0,2.35.16,3.19.49.84.32,1.46.87,1.87,1.63.41.76.61,1.8.61,3.12v8.08h-2.61l-.23-1.36h-.16c-.4.54-.92.94-1.54,1.2-.63.26-1.31.39-2.04.39Z"/>
    </g>
    <g class="st2">
      <path class="st0" d="M244.67,707.31v-13.11h2.6l.25,1.72h.16c.4-.64.92-1.11,1.55-1.42.63-.3,1.32-.46,2.06-.46.19,0,.38,0,.56.02.18.02.34.04.49.06v2.87c-.19-.03-.39-.05-.61-.07-.21-.01-.42-.02-.63-.02-.39,0-.79.05-1.2.16-.41.11-.79.27-1.15.49-.36.22-.66.49-.9.82v8.93h-3.16Z"/>
    </g>
    <g class="st2">
      <path class="st0" d="M253.02,696.71v-2.51h9.09v2.51h-9.09ZM259.96,707.55c-1.5,0-2.65-.38-3.47-1.13-.81-.75-1.22-1.95-1.22-3.59v-8.63l.56-4.68h2.6v12.81c0,.97.19,1.64.56,2.02.38.38.97.57,1.78.57.22,0,.45-.01.69-.04.23-.03.49-.07.77-.13v2.54c-.34.07-.7.13-1.1.19-.4.05-.79.08-1.17.08Z"/>
    </g>
    <g class="st2">
      <path class="st0" d="M265.79,691.96c-.67,0-1.18-.15-1.51-.46-.33-.3-.5-.72-.5-1.26s.17-.97.5-1.27c.33-.3.84-.45,1.51-.45s1.19.15,1.51.45c.33.3.49.72.49,1.27s-.16.96-.49,1.26c-.33.3-.83.46-1.51.46ZM264.2,707.31v-13.11h3.16v13.11h-3.16Z"/>
      <path class="st0" d="M270.5,707.31v-13.11h2.62l.22,1.38h.16c.5-.51,1.09-.91,1.77-1.18.67-.27,1.4-.41,2.18-.41.85,0,1.6.16,2.27.49.66.33,1.18.86,1.56,1.58.38.73.56,1.69.56,2.9v8.34h-3.16v-8.16c0-.91-.19-1.54-.58-1.89-.38-.35-.91-.53-1.59-.53-.32,0-.65.04-1,.13-.34.09-.68.23-1,.42-.32.19-.6.44-.84.76v9.27h-3.16Z"/>
      <path class="st0" d="M289.5,707.54c-.96,0-1.85-.22-2.65-.66s-1.45-1.13-1.93-2.09c-.48-.96-.72-2.21-.72-3.77s.26-2.83.79-3.88,1.31-1.83,2.34-2.37c1.03-.53,2.31-.8,3.82-.8.3,0,.61.01.91.04.3.02.57.06.82.1v-6.23h3.16v19.42h-2.66l-.2-1.39h-.16c-.38.48-.87.87-1.47,1.17-.59.3-1.28.45-2.07.45ZM290.39,704.93c.46,0,.91-.09,1.36-.28.45-.18.83-.47,1.14-.87v-7.19c-.23-.05-.5-.09-.82-.13s-.62-.05-.93-.05c-1.24,0-2.18.34-2.81,1.01-.63.67-.95,1.79-.95,3.34,0,1.07.13,1.91.38,2.51.25.6.6,1.03,1.06,1.27.45.25.98.37,1.57.37Z"/>
      <path class="st0" d="M305.41,707.55c-1.55,0-2.83-.23-3.84-.7-1.01-.47-1.77-1.2-2.27-2.21-.5-1-.74-2.3-.74-3.89,0-1.48.23-2.72.69-3.73.46-1,1.12-1.76,1.99-2.27s1.91-.76,3.14-.76,2.17.25,2.99.76,1.43,1.27,1.85,2.29c.42,1.02.62,2.28.62,3.8v.85h-9.5v-1.9h7.09l-.55.26c0-.99-.1-1.78-.29-2.37s-.48-1-.85-1.26c-.38-.25-.84-.38-1.39-.38s-1.03.12-1.42.37-.69.67-.9,1.25c-.2.58-.31,1.37-.31,2.37v1.23c0,.95.13,1.7.4,2.27.27.57.7.97,1.3,1.21.6.25,1.41.37,2.42.37.5,0,1.03-.04,1.59-.12s1.12-.19,1.71-.34v2.42c-.67.17-1.31.29-1.92.36-.61.07-1.21.11-1.81.11Z"/>
      <path class="st0" d="M312.17,707.31v-19.42h3.16v19.42h-3.16Z"/>
      <path class="st0" d="M321.93,707.54c-1.31,0-2.33-.34-3.06-1.02-.73-.68-1.1-1.58-1.1-2.7,0-1.2.41-2.14,1.23-2.82.82-.68,2.15-1.08,3.97-1.22l3.03-.29.34,1.83-3.06.28c-.84.08-1.45.28-1.82.6-.37.32-.55.76-.55,1.32s.17,1.01.5,1.31c.34.3.83.46,1.49.46.43,0,.87-.08,1.31-.25.44-.17.84-.45,1.2-.84v-5.16c0-.67-.11-1.19-.32-1.57-.21-.38-.55-.65-1.01-.81s-1.06-.23-1.8-.23c-.5,0-1.06.04-1.69.13-.63.09-1.25.22-1.85.41v-2.42c.62-.18,1.29-.33,2.03-.42.73-.1,1.42-.14,2.06-.14,1.29,0,2.35.16,3.19.49.84.32,1.46.87,1.87,1.63.41.76.61,1.8.61,3.12v8.08h-2.61l-.23-1.36h-.16c-.4.54-.92.94-1.54,1.2-.63.26-1.31.39-2.04.39Z"/>
      <path class="st0" d="M331.51,712.6v-18.4h2.67l.19,1.42h.16c.38-.49.88-.88,1.47-1.18.6-.3,1.28-.45,2.06-.45.96,0,1.84.22,2.65.65s1.45,1.13,1.93,2.08c.48.95.72,2.22.72,3.79s-.26,2.83-.79,3.88c-.53,1.05-1.3,1.83-2.34,2.37-1.03.53-2.31.8-3.83.8-.3,0-.59-.01-.9-.04-.3-.02-.58-.05-.83-.08v5.17h-3.16ZM336.42,705.11c1.25,0,2.19-.34,2.82-1.01.63-.67.94-1.79.94-3.34,0-1.08-.13-1.92-.38-2.52-.26-.6-.61-1.02-1.06-1.27-.45-.25-.97-.37-1.55-.37-.46,0-.92.09-1.37.27-.45.18-.83.47-1.14.87v7.19c.24.05.52.09.83.13s.62.05.91.05Z"/>
      <path class="st0" d="M349.34,707.54c-1.31,0-2.33-.34-3.06-1.02-.73-.68-1.1-1.58-1.1-2.7,0-1.2.41-2.14,1.23-2.82.82-.68,2.15-1.08,3.97-1.22l3.03-.29.34,1.83-3.06.28c-.84.08-1.45.28-1.82.6-.37.32-.55.76-.55,1.32s.17,1.01.5,1.31c.34.3.83.46,1.49.46.43,0,.87-.08,1.31-.25.44-.17.84-.45,1.2-.84v-5.16c0-.67-.11-1.19-.32-1.57-.21-.38-.55-.65-1.01-.81s-1.06-.23-1.8-.23c-.5,0-1.06.04-1.69.13-.63.09-1.25.22-1.85.41v-2.42c.62-.18,1.29-.33,2.03-.42.73-.1,1.42-.14,2.06-.14,1.29,0,2.35.16,3.19.49.84.32,1.46.87,1.87,1.63.41.76.61,1.8.61,3.12v8.08h-2.61l-.23-1.36h-.16c-.4.54-.92.94-1.54,1.2-.63.26-1.31.39-2.04.39Z"/>
      <path class="st0" d="M357.54,696.71v-2.51h9.09v2.51h-9.09ZM364.47,707.55c-1.5,0-2.65-.38-3.47-1.13-.81-.75-1.22-1.95-1.22-3.59v-8.63l.57-4.68h2.6v12.81c0,.97.19,1.64.57,2.02.38.38.97.57,1.78.57.22,0,.45-.01.69-.04.23-.03.49-.07.77-.13v2.54c-.34.07-.7.13-1.1.19-.4.05-.79.08-1.17.08Z"/>
      <path class="st0" d="M372.13,707.54c-1.31,0-2.33-.34-3.06-1.02-.73-.68-1.1-1.58-1.1-2.7,0-1.2.41-2.14,1.23-2.82.82-.68,2.15-1.08,3.97-1.22l3.03-.29.34,1.83-3.07.28c-.84.08-1.45.28-1.82.6-.37.32-.55.76-.55,1.32s.17,1.01.5,1.31c.34.3.83.46,1.49.46.43,0,.87-.08,1.31-.25.44-.17.84-.45,1.2-.84v-5.16c0-.67-.11-1.19-.32-1.57-.21-.38-.55-.65-1.01-.81s-1.06-.23-1.8-.23c-.5,0-1.06.04-1.7.13-.63.09-1.25.22-1.85.41v-2.42c.62-.18,1.29-.33,2.03-.42.73-.1,1.42-.14,2.06-.14,1.29,0,2.35.16,3.19.49.84.32,1.46.87,1.87,1.63.41.76.61,1.8.61,3.12v8.08h-2.61l-.23-1.36h-.16c-.4.54-.92.94-1.54,1.2-.63.26-1.31.39-2.04.39Z"/>
      <path class="st0" d="M386.17,712.84c-.66,0-1.35-.04-2.09-.13-.73-.09-1.44-.23-2.11-.42v-2.51c.71.21,1.41.36,2.08.46.67.1,1.3.14,1.89.14,1.33,0,2.3-.26,2.92-.79.61-.52.92-1.41.92-2.66v-1.01h-.16c-.38.46-.87.82-1.45,1.09s-1.26.41-2.02.41c-.9,0-1.73-.22-2.5-.66s-1.39-1.13-1.86-2.07-.7-2.16-.7-3.67c0-2.3.6-4.05,1.79-5.24,1.19-1.19,2.99-1.79,5.37-1.79.52,0,1.06.03,1.61.08.55.05,1.09.13,1.62.23.52.1,1.01.23,1.46.37v11.68c0,2.29-.56,3.94-1.68,4.96-1.12,1.01-2.81,1.52-5.09,1.52ZM387.29,704.82c.46,0,.91-.08,1.35-.25.45-.17.82-.43,1.14-.79v-7.14c-.23-.06-.5-.12-.82-.16s-.64-.06-.99-.06c-1.19,0-2.11.33-2.75,1-.64.67-.96,1.78-.96,3.32,0,1.06.13,1.88.38,2.48.26.59.61,1.01,1.06,1.24.45.24.98.35,1.57.35Z"/>
      <path class="st0" d="M401.54,707.55c-1.24,0-2.32-.24-3.23-.73-.91-.49-1.62-1.23-2.12-2.23-.5-1-.75-2.27-.75-3.8s.25-2.82.73-3.82c.49-1,1.19-1.75,2.1-2.24.91-.49,2-.73,3.27-.73s2.36.25,3.27.73c.91.49,1.61,1.23,2.1,2.24.48,1,.73,2.27.73,3.81s-.25,2.8-.75,3.8-1.2,1.75-2.12,2.24c-.91.49-1.99.73-3.23.73ZM401.54,705.12c.61,0,1.13-.13,1.56-.4.43-.26.77-.71,1-1.34.23-.63.35-1.49.35-2.59s-.12-1.99-.35-2.63c-.23-.64-.57-1.09-1-1.35-.44-.26-.96-.4-1.56-.4s-1.13.13-1.57.4c-.44.26-.77.71-1,1.34s-.35,1.49-.35,2.59.12,1.99.35,2.63.57,1.09,1,1.35c.44.26.96.4,1.57.4Z"/>
      <path class="st0" d="M410.13,707.31v-13.11h2.62l.22,1.38h.16c.5-.51,1.09-.91,1.77-1.18.67-.27,1.4-.41,2.17-.41.85,0,1.61.16,2.27.49.66.33,1.18.86,1.56,1.58.38.73.57,1.69.57,2.9v8.34h-3.16v-8.16c0-.91-.19-1.54-.58-1.89s-.91-.53-1.59-.53c-.32,0-.65.04-1,.13-.34.09-.68.23-1,.42s-.6.44-.84.76v9.27h-3.16Z"/>
      <path class="st0" d="M426.05,691.96c-.67,0-1.18-.15-1.51-.46-.33-.3-.5-.72-.5-1.26s.17-.97.5-1.27c.33-.3.84-.45,1.51-.45s1.19.15,1.51.45c.33.3.49.72.49,1.27s-.17.96-.49,1.26c-.33.3-.83.46-1.51.46ZM424.46,707.31v-13.11h3.16v13.11h-3.16Z"/>
      <path class="st0" d="M434.24,707.54c-1.31,0-2.33-.34-3.06-1.02-.73-.68-1.1-1.58-1.1-2.7,0-1.2.41-2.14,1.23-2.82.82-.68,2.15-1.08,3.97-1.22l3.03-.29.34,1.83-3.07.28c-.84.08-1.45.28-1.82.6-.37.32-.55.76-.55,1.32s.17,1.01.5,1.31c.34.3.83.46,1.49.46.43,0,.87-.08,1.31-.25.44-.17.84-.45,1.2-.84v-5.16c0-.67-.11-1.19-.32-1.57-.21-.38-.55-.65-1.01-.81s-1.06-.23-1.8-.23c-.5,0-1.06.04-1.7.13-.63.09-1.25.22-1.85.41v-2.42c.62-.18,1.29-.33,2.03-.42.73-.1,1.42-.14,2.06-.14,1.29,0,2.35.16,3.19.49.84.32,1.46.87,1.87,1.63.41.76.61,1.8.61,3.12v8.08h-2.61l-.23-1.36h-.16c-.4.54-.92.94-1.54,1.2-.63.26-1.31.39-2.04.39Z"/>
    </g>
    <g class="st2">
      <path class="st0" d="M445.41,707.49c-.63,0-1.14-.18-1.53-.53s-.58-.83-.58-1.44.19-1.09.57-1.44c.38-.35.89-.53,1.54-.53s1.15.18,1.53.54c.38.36.57.84.57,1.43s-.19,1.07-.58,1.43c-.38.36-.89.54-1.51.54Z"/>
    </g>
    <g class="st2">
      <path class="st0" d="M455.6,707.55c-1.39,0-2.56-.24-3.52-.73-.96-.49-1.69-1.23-2.19-2.23-.5-1-.75-2.28-.75-3.82s.27-2.83.81-3.83,1.32-1.74,2.34-2.22c1.03-.48,2.27-.72,3.74-.72.5,0,1,.03,1.47.08.48.05.93.13,1.36.23v2.54c-.42-.09-.83-.16-1.23-.2-.4-.05-.8-.07-1.2-.07-.92,0-1.68.14-2.28.42s-1.04.72-1.33,1.33-.43,1.42-.43,2.42.14,1.85.42,2.48c.28.62.69,1.08,1.23,1.35.54.28,1.22.41,2.03.41.42,0,.85-.04,1.29-.11s.94-.19,1.5-.35v2.54c-.49.16-1.01.28-1.57.37-.56.09-1.12.13-1.7.13Z"/>
    </g>
    <g class="st2">
      <path class="st0" d="M466.3,707.55c-1.24,0-2.32-.24-3.23-.73-.91-.49-1.62-1.23-2.12-2.23-.5-1-.75-2.27-.75-3.8s.25-2.82.73-3.82c.49-1,1.19-1.75,2.1-2.24.91-.49,2-.73,3.27-.73s2.36.25,3.27.73c.91.49,1.61,1.23,2.1,2.24.48,1,.73,2.27.73,3.81s-.25,2.8-.75,3.8-1.2,1.75-2.12,2.24c-.91.49-1.99.73-3.23.73ZM466.3,705.12c.61,0,1.13-.13,1.56-.4.43-.26.77-.71,1-1.34.23-.63.35-1.49.35-2.59s-.12-1.99-.35-2.63c-.23-.64-.57-1.09-1-1.35-.44-.26-.96-.4-1.56-.4s-1.13.13-1.57.4c-.44.26-.77.71-1,1.34s-.35,1.49-.35,2.59.12,1.99.35,2.63.57,1.09,1,1.35c.44.26.96.4,1.57.4Z"/>
      <path class="st0" d="M474.9,707.31v-13.11h2.62l.22,1.39h.16c.48-.53,1.04-.93,1.67-1.2s1.32-.4,2.06-.4,1.44.16,2.04.48c.6.32,1.07.84,1.42,1.56.34.72.52,1.67.52,2.84v8.44h-3.09v-8.17c0-.91-.17-1.53-.52-1.88s-.81-.52-1.39-.52c-.3,0-.6.05-.91.14-.31.09-.61.24-.89.44-.28.2-.52.46-.73.77v9.23h-3.16ZM489.96,707.31v-8.17c0-.91-.18-1.53-.55-1.88-.37-.35-.85-.52-1.43-.52-.3,0-.62.05-.95.14-.33.1-.64.25-.94.47-.3.22-.55.52-.77.88l-.67-2.15c.61-.76,1.29-1.3,2.04-1.62.75-.32,1.49-.47,2.22-.47.81,0,1.53.16,2.16.49.63.32,1.13.85,1.5,1.58.36.73.55,1.7.55,2.91v8.34h-3.15Z"/>
    </g>
  </g>
  <g>
    <path class="st1" d="M301.03,128.75h193.2c3.76,0,5.64,1.89,5.65,5.68v217.57c0,1.22.02,2.45-.13,3.66-.14,1.17-.83,1.56-1.83.74-.68-.56-1.3-1.21-1.92-1.84-11.07-11.07-22.1-22.19-33.25-33.18-2.14-2.11-3.06-4.28-3.05-7.31.08-46.54.06-93.07.05-139.61,0-5.79.42-5.56-5.68-5.56H147.95c-6.2,0-5.97-.31-5.97,6.03v133.61c0,1-.08,2.01,0,3,.28,2.99-.82,5.24-2.99,7.37-8.81,8.62-17.47,17.4-26.18,26.11-2.51,2.51-5.02,5.03-7.54,7.54-.55.55-1.1,1.12-1.73,1.55-.88.59-1.49.24-1.6-.79-.09-.88-.08-1.77-.08-2.66v-217.24c0-.67-.03-1.34.03-2,.16-2.11.48-2.46,2.61-2.62,1.22-.09,2.44-.04,3.66-.04h192.86Z"/>
    <path class="st1" d="M499.87,506.33v22.32c0,.78.04,1.56-.02,2.33-.07.95.32,2.23-.87,2.62-.93.3-1.52-.75-2.13-1.35-2.22-2.18-4.4-4.39-6.6-6.59-61.93-61.96-123.85-123.93-185.79-185.88-3.95-3.95-3.12-4.03-7.06-.11-5.28,5.24-10.51,10.53-15.79,15.77-2.34,2.32-2.46,2.32-4.79,0-7.79-7.76-15.55-15.54-23.31-23.32-2.59-2.6-2.59-2.64.02-5.26,14.83-14.85,29.66-29.69,44.5-44.53,2.81-2.81,2.85-2.81,5.78.12,28.42,28.42,56.83,56.85,85.25,85.28,12.48,12.49,24.98,24.96,37.44,37.46,23.51,23.59,46.98,47.23,70.55,70.76,2.08,2.07,2.9,4.21,2.85,7.06-.12,7.77-.04,15.55-.04,23.32h0Z"/>
    <path class="st1" d="M102.5,422.13c-.93-1.04-.61-2.19-.61-3.25-.02-16.22.02-32.44-.05-48.65-.01-2.4.69-4.19,2.4-5.89,27.36-27.3,54.68-54.65,82-81.98.55-.55,1.12-1.07,1.71-1.59.8-.7,1.61-.65,2.38.04.66.59,1.3,1.21,1.93,1.84,33.06,33.07,66.11,66.14,99.17,99.22.39.39.77.81,1.18,1.18,1.19,1.08,1.02,2.09-.1,3.09-.33.3-.63.63-.94.94-7.61,7.62-15.23,15.24-22.85,22.86-.47.47-.96.92-1.43,1.39-.95.95-1.92,1.02-2.91.08-.8-.77-1.61-1.53-2.39-2.32-23.24-23.25-46.48-46.5-69.72-69.75-3.46-3.46-2.93-3.38-6.36.05-26.7,26.7-53.39,53.42-80.1,80.11-.98.98-1.76,2.28-3.29,2.63h-.02Z"/>
    <path class="st1" d="M209.76,508.16c0-8.11.06-16.21-.04-24.32-.03-2.28.68-3.97,2.3-5.59,35.74-35.71,71.43-71.46,107.14-107.2,2.38-2.38,2.44-2.38,4.74-.08,7.86,7.84,15.71,15.69,23.54,23.56,2.19,2.2,2.16,2.37.09,4.55-.46.48-.94.95-1.41,1.42-44.03,44.07-88.05,88.14-132.09,132.18-1.06,1.06-2.1,3.21-3.47,2.66-1.68-.68-.75-2.96-.77-4.52-.09-7.55-.04-15.1-.04-22.65h0Z"/>
    <path class="st1" d="M101.87,505.9c0-8,.06-15.99-.04-23.99-.03-2.27.66-3.98,2.28-5.6,34.89-34.84,69.73-69.72,104.59-104.6.24-.24.46-.48.71-.7,1.7-1.53,1.98-1.54,3.6-.11.5.44.95.93,1.42,1.4,7.3,7.3,14.6,14.61,21.9,21.91,2.17,2.17,2.2,4.32.09,6.44-32.19,32.2-64.37,64.41-96.56,96.61-11.38,11.39-22.76,22.79-34.17,34.15-.9.89-1.71,2.64-3.09,2.09-1.39-.55-.71-2.36-.72-3.61-.05-8-.03-15.99-.03-23.99h.02Z"/>
    <path class="st1" d="M499.87,396.49v22.98c0,.78,0,1.55-.03,2.33-.03.66.03,1.43-.64,1.79-.92.5-1.39-.37-1.94-.85-.75-.66-1.43-1.4-2.13-2.1-27.15-27.16-54.29-54.32-81.44-81.48-3.32-3.32-2.89-3.31-6.13-.08-5.18,5.18-10.35,10.37-15.54,15.54-2.45,2.44-2.49,2.44-4.98-.05-7.7-7.68-15.38-15.38-23.07-23.08-.47-.47-.92-.96-1.37-1.45-.72-.79-.68-1.59.03-2.36.53-.57,1.06-1.14,1.61-1.69,14.51-14.53,29.02-29.05,43.54-43.57,2.79-2.79,2.82-2.78,5.73.12,5.5,5.49,10.99,10.99,16.48,16.48,22.28,22.29,44.54,44.61,66.88,66.85,2.13,2.12,3.11,4.3,3.04,7.31-.16,7.77-.05,15.54-.05,23.31h.01Z"/>
    <path class="st1" d="M390.68,508.46c0,8.22.01,16.43-.02,24.65,0,1.05.48,2.51-.73,3-1.21.49-1.88-.9-2.62-1.64-26.39-26.37-52.75-52.75-79.12-79.14-.47-.47-.93-.95-1.37-1.45-.7-.8-.65-1.61.07-2.37.45-.49.91-.97,1.38-1.44,7.69-7.7,15.38-15.39,23.07-23.09.31-.31.65-.61.95-.94,1.17-1.3,2.27-1.12,3.37.09.45.49.94.94,1.41,1.41,16.95,16.96,33.88,33.95,50.89,50.85,1.98,1.96,2.82,3.98,2.77,6.75-.14,7.77-.05,15.54-.05,23.32h0Z"/>
  </g>
</svg>